<?xml version="1.0" encoding="utf-8"?>
<svg xmlns="http://www.w3.org/2000/svg" viewBox="0 0 9 10">
	<title>A shape like a triangle without its base.</title>
	<path d="M.082 10.058c-.223-.424.072-.935.158-1.375.891-2.801 2.04-5.514 2.928-8.317.094-.514.796-.327 1.186-.354l1.285.085c1.187 3.135 2.405 6.257 3.55 9.407.364.68-.736.46-1.115.514a.96.96 0 0 1-1.112-.777C6.332 7.384 5.66 5.528 4.73 3.798c-.11-.43-.509-.488-.636-.046-.636 1.333-1.07 2.752-1.58 4.136-.271.718-.525 1.454-.926 2.112-.384.378-1.07.322-1.505.058z"/>
</svg>
