<?xml version="1.0" encoding="utf-8"?>
<svg xmlns="http://www.w3.org/2000/svg" viewBox="0 0 82 205">
	<title>A human-shaped amulet of primitive design with a hole where the face should be.</title>
	<path d="M24.859 204.475c-5.552-.497-18.866-.284-14.21-9.346 2.673-7.095 6.726-13.607 8.968-20.87-3.923-4.752-16.395 2.858-17.84-6.979C-.087 145.972-.5 124.503.61 103.143c.44-8.82 2.76-18.539 11.951-22.058 4.062-2.279 9.606-2.41 5.983-8.347-2.702-11.123-4.08-22.48-5.552-33.762-1.152-7.567.313-15.464 5.558-21.29 5.88-3.704 6.348-8.758 5.993-14.952C26.609-1.543 31.597.614 35.263.1c6.983.51 16.787-1.338 21.193 5.425.661 4.692-1.547 8.55 3.534 11.35 6.256 5.65 8 14.303 7.36 22.388-1.161 12.26-4.254 24.24-6.862 36.258 6.4 3.033 15.592 5.856 18.272 14.322 4.11 10.92 3.026 22.88 2.188 34.278-.662 15.04-1.317 30.147-3.031 45.087-2.64 5.843-17.613-.445-14.206 7.665 2.702 6.904 5.98 13.72 7.823 20.893-2.409 8.03-13.697 5.119-20.172 6.54-7.12.851-13.47-2.062-20.461.015-2.01.139-4.028.477-6.042.154zm10.98-4.603c4.471-4.821 1.27-13.036 2.19-19.252-.542-15.202.661-30.425.57-45.609-.758-12.655.445-25.32.935-37.956-5.684.507-15.212-2.533-12.982 6.574-.797 7.805 1.04 15.639.249 23.492-.691 13.368-.224 26.812-1.636 40.126-1.817 8.448-5.514 16.245-9.105 24.01-3.804 4.67-2.33 10.219 4.438 9.355 4.716.248 9.679.64 14.29-.067l1.05-.673zm18.389.244c6.326.245 18.161.162 11.685-9.123-4.872-9.044-7.258-19.116-9.956-28.958-3.994-21.312-1.51-43.14-3.163-64.665-5.725-1.12-13.073-2.508-10.908 5.846-.528 8.77.085 17.634-.2 26.347-.632 13.457.45 27.041.223 40.551-.018 9.53-.245 19.086.54 28.59 1.45 4.09 8.478.467 11.779 1.412zm-32.616-31.254c3.844-6.31 1.568-15.206 2.382-22.636.416-13.326 1.23-26.656.286-39.978 2.514-6.818-2.306-12.27-8.101-6.37-3.455 14.237-1.18 29.012-1.252 43.498-.95 5.904 2.458 15.174-.706 19.224-2.026-10.99-.83-22.517-1.632-33.708-.305-10.17-1.33-20.783 1.712-30.617 4.837-4.441 12.91-3.33 19.076-3.268 9.932 2.52 6.47-10.067 5.06-15.666-2.435-7.447-8.914-13.017-9.946-21.06-1.75-8.695-2.953-18.295.359-26.734 5.214-10.727 24.094-5.95 24.369 5.673 1.278 12.494-4.41 24.033-6.72 36.052-2.46 6.624-5.078 14.005-3.657 20.883 7.829.218 15.833.633 22.989 4.149 5.062 4.109 4.478 10.968 4.418 16.792.055 14.966-.228 29.96-1.232 44.884-3.772 2.899-.557-8.884-1.294-11.461.22-13.685 1.106-27.432.304-41.09.618-6.487-10.138-11.381-12.94-8.087.274 12.266.574 24.51.548 36.78.276 10.605 1.207 21.328 4.149 31.534 5.5 3.45 18.572 1.06 15.8-8.494.694-16.498 2.356-32.943 2.747-49.454-.129-9.534-1.681-20.44-9.257-27.058-3.197-2.546-14.683.346-12.354-6.201 2.702-10.381 4.74-20.908 6.035-31.564 2.194-11.256-.154-25.777-11.397-31.335-6.92-2.563-14.462-.306-21.615-.081C22.06 16.3 17.518 24.58 16.468 32.417c-.137 14.404 2.62 28.776 6.597 42.576 4.605 9.59-10.973 6.346-13.405 13.497C4.56 93.943 4.68 101.495 4 108.447c-.562 19.175-.725 38.464 1.453 57.547 2.436 5.679 11.258 2.915 16.16 2.868zm7.176-89.45c-2.138-6.28-3.165-13.55-4.71-20.256-2.162-9.555-3.777-19.615-2.145-29.36.297-8.474 9.384-12.93 16.949-12.121 7.744-.488 16.826 3.379 18.167 11.845 2.644 10.19 2.11 20.998-1.23 30.951-3.462 5.191-2.508 15.64-5.825 18.475-1.475-8.538 3.76-16.085 5.18-24.248 2.508-7.638 1.633-16.121.116-23.906-1.32-8.466-9.954-11.675-17.555-11.188-8.728-1.607-14.513 7.066-14.506 14.908-1.082 14.79 4.673 28.788 6.8 43.178.468.78-.268 2.144-1.241 1.722zm13.697-4.038c1.815-8.095 4.6-15.883 6.99-23.8.854-7.3 2.58-17.934-5.605-21.7-7.839-4.24-14.408 3.031-14.152 10.713-1.27 10.193 1.527 20.59 7.703 28.79 1.749.839 3.371 10.446 5.064 5.997zm10.318-64.079c4.08-3.493-4.568-10.145-2.198-2.972-.262 1.711-.767 4.133 2.198 2.972zM29.246 9.136c.213-3.96-3.217-6.541-1.897-1.113.058 1.564.905 4.033 1.897 1.113zm5.015 1.044c2.988-4.82-6.424-10.573-3.175-2.518.085 2.376.252 3.776 3.175 2.518zm13.352-.138C51.525 7.01 43.914.36 45.908 8.058c.142 1.57-.78 2.998 1.705 1.984zm-8.461-.687c2.474-3.379-5.627-10.086-2.28-2.2-.046 1.3.47 4.198 2.28 2.2zm4.165.336C46.822 5.633 38.943-.4 41.34 7.023c.37 1.243-.45 4.117 1.977 2.668z"/>
</svg>
