<?xml version="1.0" encoding="utf-8"?>
<svg xmlns="http://www.w3.org/2000/svg" viewBox="0 0 133 112">
	<title>Letters in chain stitches spelling the words “Psams Travel Car.” Each word is on its own line in all-caps. The letters are all of different sizes and not properly aligned.</title>
	<path d="M24.668 110.889c-.838-.57-1.119-.644-1.513-.397-.91.568-1.513.354-2.069-.737-.292-.572-.8-1.121-1.13-1.222-.966-.295-1.526-.94-1.526-1.761 0-.45-.248-1.006-.603-1.348-.66-.638-1.249-1.815-1.249-2.497 0-.238-.236-.685-.526-.993-.29-.308-.648-1.203-.797-1.988-.149-.785-.5-1.672-.779-1.97-.638-.682-1.073-1.81-1.073-2.781 0-.421-.173-.815-.397-.9-.503-.194-.502-1.257.002-2.92.308-1.014.33-1.507.103-2.267-.24-.802-.198-1.265.246-2.673.996-3.154 1.4-4.081 2.048-4.69.354-.333.644-.839.644-1.123 0-.285.58-1.084 1.29-1.776 1.061-1.034 1.322-1.476 1.468-2.49.152-1.051.302-1.29 1.025-1.627.466-.218 1.084-.438 1.373-.49.289-.053.765-.472 1.058-.932.63-.99 1.346-1.372 3.311-1.772.8-.163 1.457-.415 1.46-.56.012-.809.468-.973 2.215-.798 1.575.159 1.814.12 2.26-.373.786-.868 2.32-.747 3.26.258.67.717.835.776 1.485.529 1.127-.429 1.316-.359 2.228.828 1.042 1.356 1.07 2.08.118 3.144-.61.684-1 .852-2.357 1.012-1.703.2-2.533.027-3.333-.697-.263-.239-.87-.569-1.349-.733-.79-.272-.952-.23-1.765.448-.93.776-2.043.968-2.568.443-.229-.229-.538-.099-1.25.527-.522.458-1.45 1.084-2.065 1.392-.614.309-1.422.875-1.794 1.259-.373.384-.886.817-1.14.962-.552.317-1.042 1.986-1 3.406.03.987.004 1.02-.712.876-.67-.134-.84-.004-1.697 1.298-.895 1.36-.93 1.49-.577 2.167.511.98.492 1.1-.403 2.511-.696 1.097-.765 1.39-.622 2.632.136 1.19.316 1.544 1.216 2.384 1.029.96 1.053 1.022.897 2.337-.132 1.117-.07 1.447.36 1.908.285.306.519.775.519 1.042 0 .266.278.928.619 1.471.34.543.705 1.336.81 1.763.26 1.051 2.04 2.796 2.853 2.796.386 0 1 .371 1.546.934l.905.934 2.52-.01c1.386-.007 2.759-.008 3.05-.003 2.386.039 3.62-.215 4.322-.887.404-.387.923-.703 1.154-.703.232 0 .702-.313 1.044-.694.343-.382.891-.961 1.219-1.287.354-.353.595-.916.595-1.39 0-.903.365-1.3 1.316-1.433.436-.06.847-.436 1.233-1.126.711-1.27 1.353-1.696 1.597-1.06.094.246.033.64-.137.874-.607.84-.642 1.158-.212 1.886.637 1.078.538 1.805-.357 2.642-.437.408-.794.94-.794 1.182 0 1.09-.93 2.066-2.653 2.787-.522.218-1.232.665-1.579.992-.451.426-.952.595-1.762.595-.832 0-1.2.13-1.394.492-.145.27-.79.64-1.435.82-1.027.288-1.259.27-1.888-.142-.578-.379-.816-.41-1.218-.159-.68.425-1.333.392-2.038-.102-.546-.382-.644-.372-1.285.133-.892.701-1.084.689-2.323-.153zm2.712-1.941c.154-.46-1.23-.127-1.871.452-.354.319-.392.5-.162.778.25.3.438.256 1.11-.261.444-.343.86-.78.923-.969zm2.162.205c-.618-.5-1.057-.422-1.057.188 0 .558.847.944 1.28.584.298-.247.26-.382-.223-.772zm3.705.878c0-.305-1.02-.57-1.183-.307a.317.317 0 0 0 .044.372c.253.253 1.139.203 1.139-.065zm-10.435-.587c.1-.16-.067-.539-.37-.842-.5-.5-.567-.51-.724-.102-.292.762.686 1.606 1.094.944zm14.798-1.556c.071-.115-.037-.347-.24-.515-.288-.24-.516-.168-1.05.327-.376.348-.615.7-.533.784.18.179 1.639-.298 1.823-.596zm-13.238.014c.196-.317-.302-.63-.654-.413-.296.183-.102.66.269.66.128 0 .301-.112.385-.247zm-4.137-1.387c-.107-.727-.746-.971-.746-.285 0 .55.214.86.591.86.132 0 .201-.259.155-.575zm19.206-.193c.312-.344.363-.56.162-.684-.36-.222-1.064.323-1.064.823 0 .51.366.454.902-.139zm3.237-3.072c.206-.536-.37-1.187-1.05-1.187-.427 0-.479.07-.232.317.175.175.318.532.318.794 0 .577.749.636.964.076zm-24.248-1.187a.265.265 0 0 0-.264-.265.265.265 0 0 0-.265.265.265.265 0 0 0 .53 0zm-.95-2.937c-.657-.726-.99-.618-.482.156.238.363.546.59.685.503.143-.088.056-.374-.202-.659zm-.108-2.732c0-.434-1.713-2.055-1.936-1.832-.365.365-.163 1.131.51 1.932.547.65.769.758 1.059.517.202-.168.367-.445.367-.617zm-1.282-7.94c.314-.691.153-1.472-.304-1.472-.153 0-.4.318-.548.707-.492 1.293.29 1.996.852.765zm1.017-5.06c0-.21-.119-.381-.264-.381-.146 0-.265.245-.265.545 0 .3.12.47.265.38.145-.09.264-.334.264-.544zm2.13-2.399c.326-.86.322-1.686-.01-1.686-.41 0-1.644 2.123-1.48 2.55.21.547 1.163-.006 1.49-.864zm2.651-4.102c.187-.35.203-.644.043-.804-.299-.299-1.733 1.281-1.502 1.655.21.34 1.1-.178 1.46-.851zm3.45-2.256c.767-.89.827-1.15.266-1.15-.79 0-2.008 1.144-1.798 1.69.196.512.814.294 1.532-.54zm10.676-.337c.084-.136-.11-.431-.433-.656-.53-.371-.629-.37-1.056.017-.26.235-.408.53-.33.656.19.307 1.627.293 1.819-.017zm-6.624-.79c.857-.895.73-1.383-.291-1.11-.837.224-1.293.846-1.062 1.449.235.611.507.543 1.353-.34zm8.355-.526c0-.26-.226-.677-.502-.927-.478-.433-.524-.425-.927.151-.396.566-.391.618.078.792.277.102.583.315.68.474.245.396.67.085.67-.49zm-4.63-.286c0-.471-.873-.692-1.249-.316-.146.146-.182.402-.08.569.264.425 1.329.222 1.329-.253zm-3.572-1.358c0-.128-.298-.234-.662-.234-.622 0-.846.257-.513.59.212.212 1.175-.079 1.175-.356zm4.98.145c-.139-.673-1.464-1.35-1.99-1.018-.744.469-.669.809.243 1.1 1.309.42 1.845.395 1.747-.082zm7.73 38.465c-.86-.922-.69-1.273.619-1.273 1.286 0 2.074-.578 1.53-1.122-.484-.483-.367-.975.487-2.053.436-.55.795-1.223.797-1.493.006-.636.19-.872 1.363-1.746.7-.521 1.096-1.109 1.425-2.115.579-1.772 1.071-2.742 1.72-3.391.284-.283.516-.69.516-.904 0-.735 1.075-2.45 2.574-4.107 1.327-1.467 1.493-1.774 1.43-2.646-.072-1.004.447-1.854 1.133-1.854.185 0 .532-.216.77-.48.37-.408.386-.607.108-1.35-.319-.851-.298-.899.829-1.9.878-.781 1.12-1.163 1.01-1.588-.108-.413.101-.789.791-1.42.868-.796.925-.941.758-1.932-.178-1.05-.146-1.107 1.562-2.815.96-.96 1.857-1.744 1.995-1.744.138 0 .642.169 1.12.375l1.834.793c.532.23 1.092.42 1.245.42.64 0 1.626.647 1.626 1.068 0 .622.496.945 1.546 1.007 1.726.104 2.687.912 2.687 2.258 0 .415.407.853 1.39 1.5 1.11.73 1.388 1.057 1.388 1.633 0 .602.223.83 1.368 1.402 1.754.875 2.145 1.325 1.73 1.99-.258.413-.213.563.273.904.321.224.793.408 1.049.408.504 0 .9 1.054.644 1.72-.088.229.177.772.624 1.281.926 1.055 1.324 2.016 1.324 3.197 0 .597.29 1.237.923 2.033.508.64.925 1.42.926 1.737.002.41.427.84 1.479 1.498 1.524.953 2.757 2.336 2.757 3.092 0 .237-.297.71-.661 1.053-.78.732-.81 1.02-.22 2.05.987 1.719-.585 2.267-1.707.595-.341-.509-.911-1.078-1.265-1.265-.355-.186-.824-.769-1.044-1.294-.22-.526-.677-1.213-1.016-1.528-.36-.333-.69-1.032-.793-1.673-.122-.759-.362-1.2-.77-1.418-.915-.488-1.261-1.075-1.195-2.027.049-.695-.071-.938-.592-1.197-.524-.262-.694-.61-.86-1.76-.113-.788-.4-1.648-.639-1.911-.459-.508-1.539-.646-1.796-.23-.09.147-.542.086-1.102-.148-.849-.354-.996-.353-1.404.016-.25.227-.725.413-1.055.413-.33 0-.935.238-1.345.53-.461.328-1.283.563-2.158.617-.776.047-1.741.223-2.143.39-.402.167-1.438.418-2.3.557-.864.139-1.811.382-2.105.539-.294.157-.99.213-1.545.125-.771-.124-1.244-.024-1.999.421-.796.47-1.216.549-2.163.407-1.26-.189-2.254.15-2.254.767 0 .201-.417.76-.926 1.24-.716.675-.927 1.085-.93 1.807-.005 1.422-.245 2.033-.92 2.34-.361.165-.687.61-.79 1.082-.38 1.726-7.094 7.694-8.66 7.697-.25 0-.696-.26-.993-.578zm6.89-5.75c.856-.857 1.005-1.428.338-1.297-.501.099-1.836 2.07-1.4 2.07.158 0 .636-.348 1.061-.773zm38.95-1.69c.073-.191-.087-.638-.355-.993-.384-.509-.556-.577-.812-.321-.25.248-.254.479-.02.992.326.716.968.89 1.186.321zm-36.13-2.1c.376-.48.621-2.006.35-2.174-.128-.079-.54.223-.917.67-.546.65-.63.917-.412 1.324.317.59.613.645.979.18zm32.401-1.31c-.246-.248-.317-.177-.317.317s.07.564.318.317c.246-.247.246-.388 0-.635zm-30.268-2.646c.337-.337.44-1.27.14-1.27-.332 0-1.145.874-1.145 1.231 0 .442.58.464 1.005.039zm28.628-.477a.265.265 0 0 0-.265-.264.265.265 0 0 0-.264.264.265.265 0 0 0 .53 0zm-23.929-1.613c.099-.159.016-.453-.183-.652-.292-.292-.487-.3-1.003-.04-1.027.515-.992.982.074.982.513 0 1.013-.13 1.112-.29zm3.728-1.423c-.135-.352-.266-.372-.745-.115-.561.3-.564.323-.084.674.58.423 1.077.088.829-.559zm-6.58.243c.38-.267.587-.686.587-1.19 0-1.04-.356-.983-1.032.162-.856 1.45-.694 1.826.444 1.028zm25.038-.547c.191-.5-.354-1.283-.671-.966-.25.25-.003 1.396.3 1.396.113 0 .28-.194.37-.43zm-14.661-.084c0-.312-.516-.646-.706-.456-.19.19.145.705.457.705a.25.25 0 0 0 .249-.249zM71.1 92c.66-.353.654-.954-.014-1.311-.765-.41-2.838.642-2.372 1.204.369.444 1.649.502 2.386.107zm-11.806-.698c.851-.406.968-.408 1.398-.02.42.378.62.382 1.924.043.8-.208 1.611-.319 1.802-.246.192.073.692-.045 1.112-.262.42-.217 1.25-.395 1.844-.395.595 0 1.354-.178 1.686-.396.606-.397 1.386-.58 3.598-.847.648-.078 1.619-.42 2.156-.759l.978-.617-.53-1.071c-.292-.59-.986-1.432-1.543-1.874-.561-.444-1.149-1.212-1.316-1.72-.285-.861-.375-.918-1.458-.918-1.01 0-1.216-.103-1.634-.811-.38-.646-.613-.786-1.139-.684-.83.16-2.187-.646-2.595-1.541-.376-.826-.73-.848-1.143-.073-.174.328-.494.726-.71.886-.313.23-.337.454-.12 1.078.304.872.058 1.56-.77 2.152-.298.214-.483.676-.483 1.206 0 .963-.32 1.45-1.389 2.111-.524.325-.727.666-.727 1.221 0 1.387-.467 2.146-1.59 2.587-.701.276-1.056.58-1.056.904 0 .607.5.62 1.705.046zm14.625-.791c.144-.432-.97-.738-1.34-.369-.226.226-.202.366.093.555.49.315 1.111.222 1.247-.186zm3.4-.176c.197-.512-.343-1.765-.76-1.765-.196 0-.646.307-.999.683-.628.669-.63.69-.128 1.058.647.473 1.71.487 1.887.024zm2.23-.323c0-.368-.835-1.707-1.065-1.707-.41 0-.3.839.18 1.369.42.464.885.642.885.338zm-20.968-.998c.725-.653.822-1.85.14-1.718-.496.096-1.71 2.04-1.494 2.39.157.253.533.066 1.354-.672zm22.026-.031c0-.422-.48-.815-.711-.583-.218.217.122.964.439.964.15 0 .272-.172.272-.381zm-3.496-2.733c-.478-.79-1.155-1.319-1.39-1.085-.222.223.59 2.015.977 2.157.649.238.866-.325.413-1.072zm-16.243-1.193c.476-.765-.37-1.14-.963-.427-.254.306-.391.669-.306.807.23.37.932.16 1.269-.38zm-1.824-.72c.09-.146.044-.265-.101-.265-.146 0-.338.12-.428.265-.09.145-.045.264.1.264.146 0 .339-.119.429-.264zm15.435-1.145c-.05-.025-.493-.403-.983-.84l-.89-.793.462.926c.734 1.47.974 1.697 1.26 1.187.133-.238.201-.454.15-.48zm.736-.921c-.229-.23-.495-.337-.592-.24-.254.254.438 1.008.748.816.155-.095.092-.329-.156-.576zm-12.924-.53c.158-.477-.389-.377-.573.104-.099.258-.04.379.153.314a.749.749 0 0 0 .42-.419zm8.38-1.763c-.482-.895-.993-1.18-1.281-.713-.075.122.168.669.54 1.217.481.707.76.914.96.713.202-.201.138-.554-.219-1.217zm1.999-.494c0-.369-1.29-1.09-1.527-.852-.147.146 1.003 1.184 1.328 1.198.11.005.199-.15.199-.346zm-4.706-.704c.122-.83-.176-1.238-1.342-1.842-1.07-.554-1.265.053-.459 1.428.846 1.444 1.624 1.622 1.8.414zm-4.604-1.84c.897-1.215.686-1.445-.472-.515-.998.802-1.166 1.297-.439 1.297.183 0 .592-.352.91-.783zm33.132 31.491c-.15-.281-.274-.65-.274-.82 0-.17-.357-.641-.794-1.05-.872-.814-.996-1.612-.463-2.984.182-.469.297-1.447.256-2.175-.04-.727-.105-2.098-.143-3.045-.038-.947-.158-1.865-.266-2.04-.108-.175-.201-1.242-.207-2.37-.006-1.13-.09-2.176-.185-2.326-.096-.15-.2-1.285-.23-2.522-.03-1.237-.13-3.305-.223-4.597-.255-3.584-.312-3.502 2.446-3.542 1.493-.021 2.511.089 2.852.307.29.187.977.411 1.525.498.548.087 1.55.533 2.228.99.678.457 1.658.97 2.179 1.14.645.211 1.086.59 1.386 1.189.241.484.647 1.031.9 1.217.341.249.42.55.3 1.146-.128.646-.044.887.418 1.194l.58.384-.525.987c-.92 1.727-2.294 3.107-3.729 3.741-1.675.741-1.948 1.112-1.242 1.684.292.237.673.694.845 1.015.172.322.529.585.793.585s.847.327 1.294.727c.448.4 1.307 1.085 1.91 1.522.602.436 1.297.972 1.544 1.19.247.219.775.543 1.173.722.398.179.724.503.724.721 0 .523 1.363 1.212 2.045 1.034.868-.227 2.14.582 2.236 1.423.062.534.354.873 1.085 1.26.799.422.985.661.926 1.185-.05.434-.31.74-.768.9-.57.199-.863.113-1.636-.476-.901-.688-.971-.7-1.604-.285-.778.51-1.431.268-2.12-.784-.243-.37-.662-.673-.932-.673s-.639-.178-.82-.397c-.181-.218-.481-.396-.667-.396-.186 0-.923-.64-1.637-1.422-.715-.782-1.56-1.504-1.879-1.605-.319-.101-.58-.293-.58-.425 0-.133-.462-.478-1.028-.767-.659-.336-1.128-.808-1.303-1.31-.217-.62-.453-.802-1.133-.87-.664-.064-.976-.293-1.372-1.004a14.378 14.378 0 0 0-1.013-1.557c-.275-.35-.5-.967-.5-1.371 0-.61.28-.916 1.653-1.807 2.354-1.527 2.486-1.663 2.466-2.547-.016-.71.08-.807.908-.926 1.302-.186 1.39-1.046.216-2.133-1.052-.975-2.729-1.836-3.576-1.836-.338 0-.818-.238-1.067-.529-.25-.29-.777-.529-1.173-.529-.395 0-.794-.12-.885-.269-.385-.622-.56.111-.521 2.178.023 1.21.19 2.48.373 2.82.187.35.263.982.174 1.457-.105.557-.015 1.042.268 1.445.234.335.361.866.283 1.184-.077.318-.268 1.08-.423 1.692-.254 1.006-.218 1.209.379 2.087.739 1.09.772 1.255.395 1.959-.185.346-.142 1.023.144 2.256.32 1.38.34 1.845.09 2.145-.24.29-.243.457-.01.69.483.484.36 1.37-.336 2.394-.393.579-.586 1.158-.498 1.494.141.539-.298 1.339-.736 1.339-.122 0-.346-.23-.496-.512zm.568-8.012c-.19-.19-.313-.206-.313-.04 0 .15.08.353.176.45.097.097.238.115.313.04.076-.075-.004-.278-.176-.45zm.216-2.44c0-.398-.475-.82-.685-.61-.185.185.18.99.449.99.13 0 .236-.17.236-.38zm4.366-3.853c.09-.145-.015-.264-.234-.264-.218 0-.47.119-.56.264-.09.146.015.265.233.265.219 0 .47-.12.56-.265zm-4.838-1.636c-.404-.404-.702-.106-.478.478.132.345.247.38.483.144.235-.235.234-.383-.004-.622zm-.322-2.95c0-.549-.313-.73-.703-.406-.513.426-.436.759.174.759.291 0 .53-.159.53-.353zm9.937-2.051c.272-.442-.341-.947-.706-.582-.305.305-.114.87.294.87.129 0 .314-.13.412-.288zm-3.587-3.152a.265.265 0 0 0-.264-.265.265.265 0 0 0-.265.265.265.265 0 0 0 .53 0zm-5.349-2.34c.076-.228-.051-.324-.353-.265-.26.05-.525.251-.59.447-.076.228.051.323.353.265.26-.05.525-.252.59-.448zm29.658-6.962c-.582-.454-.79-.49-1.284-.227-.998.535-2.959.207-5.707-.953-.444-.187-1.635-.418-2.646-.512-1.089-.1-2.114-.362-2.511-.64-.37-.26-.995-.471-1.389-.471s-.895-.149-1.113-.33c-.5-.414-.496-1.913.007-3.308.21-.582.383-1.312.385-1.621.002-.31.168-.7.368-.865.2-.166.437-.76.526-1.321.09-.56.344-1.169.564-1.352.22-.183.38-.645.353-1.026-.026-.382.102-1.17.285-1.753.802-2.547.811-2.6.482-2.996-.365-.44-.292-1.318.154-1.86.224-.274.182-.442-.172-.702-.402-.293-.448-.645-.33-2.528.075-1.203.239-2.29.364-2.415.27-.27 2.832.34 3.272.78.174.174.323 1.252.347 2.511.023 1.214.13 2.348.236 2.52.194.314-.202 2.176-.645 3.026-.168.324-.108.524.211.702.33.185.373.342.164.606-.155.196-.365.706-.468 1.134-.102.428-.429 1.118-.725 1.535-.297.416-.699 1.363-.894 2.103-.196.74-.66 1.664-1.031 2.052-.814.85-.938 2.332-.213 2.556.255.079.665.25.912.382.247.131 1.482.305 2.745.386 1.263.08 2.54.278 2.838.437.297.16 1.226.274 2.063.255 1.547-.035 2.356.362 2.356 1.155 0 .196.447.575.992.841 1.06.518 1.419 1.4.848 2.087-.402.484-.499.47-1.344-.188zm-2.877-2.34a.265.265 0 0 0-.265-.265.265.265 0 0 0-.264.265c0 .146.119.265.264.265.146 0 .265-.12.265-.265zm-7.012-11.377c.09-.146.038-.265-.116-.265-.155 0-.28.12-.28.265 0 .145.052.265.116.265s.19-.12.28-.265zm.837-5.67c-.191-.5-.97-.557-.97-.072 0 .19.144.487.318.662.403.403.871-.02.652-.59zm-1.498-2.048c0-.17.2-.53.443-.8.32-.354.364-.57.155-.78-.208-.208-.405-.063-.708.523-.483.934-.532 1.367-.155 1.367.146 0 .265-.14.265-.31zM100.98 69.23c-.947-.401-1.974-.739-2.283-.75-.31-.011-.711-.199-.893-.417-.18-.218-.493-.397-.694-.397-.2 0-.63-.265-.953-.59-.324-.323-.83-.56-1.125-.526-1.148.132-1.508-.674-1.096-2.456.1-.436.231-1.3.29-1.917.058-.618.18-1.242.27-1.387.09-.146.212-.95.272-1.788.06-.837.18-2.058.268-2.713.087-.655.15-1.585.14-2.066-.011-.481.09-1.08.224-1.33a.95.95 0 0 0 .003-.883c-.157-.28-.103-.757.154-1.374.217-.52.395-1.306.395-1.747 0-1.25.803-1.86 2.447-1.859.764 0 1.747.188 2.183.415.496.259 1.986.495 3.969.628 5.899.398 8.287 1.699 5.806 3.163-1.012.597-1.713.7-2.115.312-.317-.306-2.143-.467-2.398-.212-.359.359-1.354.19-2.034-.344-.373-.294-1.015-.528-1.424-.52-.41.008-1.345-.062-2.079-.155-1.706-.218-2.055.151-2.01 2.124.018.79-.085 1.51-.23 1.6-.144.09-.263.394-.263.676 0 .407.186.514.894.514.491 0 1.03.165 1.199.368.168.202.629.435 1.025.517l2.306.481c2.265.473 3.227 1.875 2.03 2.958-.605.547-1.086.553-1.841.024-.355-.248-.812-.343-1.144-.238-.305.097-1.067-.022-1.703-.265-.633-.242-1.604-.402-2.157-.356l-1.006.082-.043 1.515c-.024.833-.181 1.932-.35 2.442-.346 1.05-.198 1.467.522 1.467.272 0 .785.372 1.14.826.556.71.826.83 1.938.86.968.025 1.405.174 1.745.594.25.307.8.702 1.223.877.422.176.9.608 1.061.962.17.373.519.644.828.644.295 0 .535.119.535.264 0 .146.013.354.03.464.015.109-.729.208-1.654.22-1.281.018-2.094-.151-3.403-.707zm2.116-.49c0-.137-.12-.323-.265-.413-.145-.09-.264.023-.264.25 0 .226.119.412.264.412.146 0 .265-.112.265-.25zm1.232-10.779c-.076-.076-.271-.056-.433.045-.212.13-.199.3.048.597.31.373.352.369.433-.045.05-.252.028-.52-.048-.597zm.404-8.344c-.19-.19-.313-.206-.313-.04 0 .353.313.666.49.49.075-.075-.005-.278-.177-.45zM77.779 68.293c-.09-.237-.019-.667.16-.954.275-.44.24-.614-.222-1.106-.314-.334-.55-.939-.55-1.412 0-.455-.103-.89-.229-.969-.126-.078-.309-.637-.406-1.242-.096-.605-.41-1.397-.696-1.761-.286-.364-.52-.929-.52-1.255 0-.326-.179-.742-.397-.923-.218-.181-.397-.731-.397-1.223 0-.525-.207-1.1-.502-1.396-.276-.276-.584-.901-.685-1.389-.303-1.472-1.226-3.168-2.324-4.266-1.043-1.042-1.516-2.103-1.516-3.4 0-.383-.179-.845-.397-1.026-.64-.532-.5-1.323.236-1.323.349 0 .702.179.786.397.09.235.487.397.972.397 1.412 0 2.74 1 2.53 1.908-.057.25.063.592.266.76.203.17.37.642.37 1.05 0 .522.164.797.552.92.592.187 1.326 1.6 1.116 2.147-.07.182.05.665.268 1.073.217.407.605 1.336.86 2.064.257.727.75 1.754 1.097 2.282.447.68.581 1.157.46 1.64-.107.428-.02.894.237 1.261.24.342.35.87.268 1.281-.093.465.036.916.385 1.347l.524.648.548-.658c.302-.362.626-.896.72-1.187.094-.29.35-.734.57-.985.261-.296.347-.727.245-1.233-.103-.516-.026-.886.23-1.098.213-.176.386-.766.386-1.31 0-.627.219-1.268.595-1.747.698-.885 1.248-2.337 1.253-3.309.002-.378.242-.902.533-1.166.291-.263.53-.698.53-.967 0-.268.13-.488.289-.488.159 0 1.01-.714 1.891-1.587.994-.985 1.826-1.588 2.191-1.588.324 0 .98-.078 1.458-.173l.868-.174-.155.954a8.358 8.358 0 0 1-.586 1.862c-.35.739-.62.939-1.45 1.071-.822.132-1.232.428-2.102 1.521-1.19 1.494-1.19 1.497-.83 2.447.2.522.115.921-.396 1.883-.357.671-.65 1.426-.65 1.677 0 .25-.16.691-.357.978-.196.287-.428.98-.516 1.538-.087.558-.308 1.196-.491 1.416-.183.22-.343.834-.356 1.366-.017.675-.24 1.18-.74 1.68-.393.394-.714.818-.714.943s-.414.425-.92.666c-.61.292-.977.685-1.094 1.174-.274 1.146-.608 1.396-1.863 1.396-.835 0-1.214-.122-1.333-.432zm6.4-8.034c.09-.146.038-.265-.116-.265s-.28.12-.28.265c0 .145.052.264.116.264s.19-.119.28-.264zm-9.666-9.012c-.278-.521-1.05-.717-1.05-.268 0 .395.814 1.096 1.081.932.146-.09.134-.357-.03-.664zm-2.505-4.218c-.09-.145-.342-.264-.56-.264-.218 0-.323.119-.233.264.09.146.342.265.56.265.218 0 .323-.119.233-.265zM45.511 68.18c-.733-.271-.935-.89-.58-1.771.528-1.306 1.289-4.145 1.38-5.146.05-.54.277-1.267.507-1.618.267-.408.326-.728.163-.892-.164-.163-.065-.675.276-1.424.292-.644.533-1.536.536-1.983.004-.516.285-1.125.771-1.669.465-.52.715-1.048.638-1.343-.07-.268.079-.802.33-1.186.472-.72.959-2.522.933-3.456l-.031-1.022c-.01-.27.156-.688.368-.926.212-.238.575-1.078.807-1.866.698-2.374 1.825-3.041 3.126-1.85.333.304 1.021.814 1.53 1.133.56.35.963.835 1.019 1.224.05.354.318.931.595 1.283.277.352.503.909.503 1.238 0 .328.179.666.397.75.23.088.397.484.397.944 0 .522.18.89.53 1.076.29.156.529.501.529.768 0 .266.209.768.465 1.115.587.797 2.083 3.857 2.313 4.732.143.547.838 2.124 1.981 4.498.105.218.702.466 1.326.552 1.375.188 1.942.836 1.758 2.011-.085.545.002.955.246 1.157.9.747.052 1.553-.918.873-.318-.223-.792-.32-1.09-.226-.562.178-.948-.153-3.105-2.659-.618-.718-1.124-1.457-1.124-1.64 0-.184-.239-.779-.53-1.322-.29-.543-.529-1.134-.529-1.313 0-.179-.238-.452-.529-.608-.334-.179-.53-.554-.53-1.017 0-.404-.162-.957-.36-1.229-.352-.48-.39-.477-1.339.082-1.036.612-2.129.752-2.403.309-.09-.147-.488-.243-.883-.213s-.893-.055-1.107-.19c-.214-.133-.747-.254-1.183-.268-.437-.013-.995-.115-1.24-.227-.361-.163-.503.005-.736.867-.158.589-.395 1.136-.527 1.218-.132.082-.175.553-.094 1.048.117.724.036.968-.415 1.25-.442.275-.56.613-.56 1.6 0 .687-.169 1.64-.375 2.119-.206.477-.573 1.583-.814 2.456-.755 2.732-1.183 3.22-2.422 2.76zm18.057-8.08c-.117-.305-.264-.37-.44-.193-.146.145-.186.47-.089.723.117.306.264.37.44.194.146-.145.186-.47.09-.723zm-2.275-4.074a.265.265 0 0 0-.265-.264.265.265 0 0 0-.264.264c0 .146.119.265.264.265.146 0 .265-.12.265-.265zm-9.128-2.646c.09-.145.037-.264-.117-.264s-.28.119-.28.264c0 .146.052.265.117.265.064 0 .19-.119.28-.265zm6.333-.288c.151-.143.022-.474-.33-.85-.319-.338-.58-.742-.58-.897 0-.154-.163-.417-.363-.583-.2-.166-.439-.768-.53-1.338-.114-.714-.33-1.087-.694-1.203-.291-.092-.544-.25-.563-.348-.018-.1-.062-.452-.096-.782-.06-.568-.826-1.65-1.168-1.647-.293.002-1.037 2.242-1.043 3.144-.004.493-.133 1.023-.288 1.177-.155.155-.281.652-.281 1.105 0 1.072 1.28 2.379 2.08 2.125.306-.097.866.004 1.282.232.74.404 2.075.334 2.574-.135zm-6.995-1.844c0-.282-.106-.513-.236-.513-.31 0-.601.773-.408 1.086.231.373.644.006.644-.573zm7.54-.47c0-.478-.517-.39-.62.105-.057.276.042.397.265.323.196-.065.356-.258.356-.427zm-6.65-2.434c-.352-.352-1.02.377-.749.817.132.214.309.18.607-.119.293-.293.336-.504.143-.698zm4.667-2.107c0-.146-.127-.265-.28-.265-.155 0-.207.12-.117.265.09.145.216.264.28.264.064 0 .117-.119.117-.264zm-.948-1.552c.078-.127-.082-.432-.355-.68-.542-.49-.98-.168-.714.525.162.42.843.52 1.069.155zM29.12 62.194c-.098-.41-.327-.923-.51-1.142-.393-.47-.475-5.168-.101-5.866.173-.324.128-.52-.158-.68-.34-.19-.358-.446-.112-1.668.263-1.313.635-3.766.912-6.015.058-.478.172-.975.252-1.105.08-.13.025-.513-.123-.852-.202-.458-.148-1.018.212-2.202l.482-1.588 1.57.018c.864.01 1.987.176 2.497.37.51.194 1.164.445 1.455.557.291.113 1.014.272 1.607.353 1.438.199 4.346 1.929 4.346 2.587 0 .274-.179.566-.397.65-.262.1-.397.515-.397 1.218 0 .952-.178 1.25-1.653 2.758-.91.93-2.06 1.947-2.558 2.26-.9.57-.901.573-.33.952.315.21.573.516.573.681 0 .166.248.456.55.645.304.19.846.987 1.205 1.772.653 1.426 1.927 2.774 2.621 2.774.542 0 .99 1.015.821 1.86-.113.565-.011.83.437 1.133.439.298.509.473.283.709-.23.239-.49.214-1.111-.108-.446-.23-1.113-.419-1.48-.419-.51 0-.793-.242-1.185-1.01-.283-.555-.703-1.165-.931-1.355-.23-.19-.417-.48-.417-.644 0-.164-.417-.766-.926-1.338-.51-.573-.926-1.25-.926-1.507 0-.256-.237-.632-.527-.835-.29-.204-.827-.932-1.192-1.619-.769-1.445-.676-2.328.29-2.768.355-.162.76-.596.9-.964s.543-.779.895-.913c.353-.134.963-.666 1.357-1.183.921-1.208.749-2.075-.534-2.684-.508-.24-.924-.544-.924-.673 0-.128-.246-.234-.547-.234-.3 0-.806-.14-1.124-.31-.318-.172-1.025-.394-1.57-.495l-.992-.182-.032.956a22.783 22.783 0 0 1-.132 1.75c-.055.437-.155 1.33-.221 1.985a143.65 143.65 0 0 1-.399 3.307c-.153 1.165-.283 2.593-.29 3.175a46.015 46.015 0 0 1-.154 2.723c-.097 1.125-.037 1.791.185 2.059.253.304.26.62.028 1.379-.165.54-.332 1.28-.37 1.642-.103.961-.932 1.023-1.155.086zm11.8-1.953c0-.437-.773-.593-1.197-.241-.587.486.004 1.143.696.773.275-.148.5-.387.5-.532zm-11.377-.512a.265.265 0 0 0-.265-.264.265.265 0 0 0-.264.264c0 .146.119.265.264.265.146 0 .265-.12.265-.265zm.264-4.365c.27-.325.252-.397-.1-.397-.236 0-.429.179-.429.397 0 .218.045.397.1.397.055 0 .248-.179.43-.397zm.53-6.747c0-.146-.053-.265-.117-.265s-.19.12-.28.265c-.09.145-.038.264.116.264.155 0 .28-.119.28-.264zm8.935-3.49c-.164-.49-.733-.571-.733-.104 0 .23.188.419.419.419.23 0 .371-.141.314-.314zm-1.792-1.39c0-.517-.513-.798-.846-.465-.15.15-.192.401-.094.56.26.419.94.351.94-.094zM14.112 61.294c-.39-.595-.709-1.223-.709-1.396 0-.173-.19-.586-.423-.919-.377-.538-.38-.653-.026-1.05.751-.846 1.099-2.588.736-3.69-.236-.718-.25-1.191-.049-1.717.208-.544.17-1.204-.152-2.628-.342-1.512-.367-2.068-.124-2.712.269-.712.24-.859-.246-1.225-.457-.345-.52-.584-.368-1.394.236-1.26-.17-1.754-1.424-1.736-1.295.02-2.703-.287-3.34-.728-.287-.198-.942-.362-1.456-.364-.513-.002-1.185-.151-1.492-.33a94.15 94.15 0 0 0-1.654-.928c-.896-.492-1.094-.741-1.094-1.375 0-.735.062-.778 1.257-.854 1.392-.09 3.302.413 3.786.996.172.208.522.378.776.378.255 0 .99.233 1.633.517.9.398 2.02.553 4.862.671 2.031.085 4.686.255 5.9.378 1.213.123 2.443.162 2.734.086.596-.156 3.35.42 3.856.806.473.36.409.894-.132 1.108-.647.255-6.653.397-6.8.16-.065-.107-.929-.185-1.918-.174-1.797.02-1.8.02-1.889.814-.049.436-.169.913-.267 1.058-.21.314-.19 3.014.071 9.607.149 3.746.116 4.936-.142 5.247-.184.222-.307.87-.273 1.44.084 1.433-.679 1.412-1.633-.046zm1.143-14.55c0-.645-.618-.554-.747.11-.05.261.085.441.331.441s.416-.226.416-.551zm0-3.02a.39.39 0 0 0-.38-.398c-.512 0-.766.45-.349.618.578.233.73.187.73-.22zm-5.38-9.305c-.097-.097-.176-.555-.176-1.018 0-.463-.193-1.229-.43-1.702-.329-.66-.4-1.363-.303-3.017.097-1.656.032-2.301-.28-2.779-.338-.518-.354-.814-.096-1.777.325-1.216.07-2.496-.497-2.496-.163 0-.622.232-1.02.515-.67.478-1.306.753-3.724 1.61-.51.18-1.133.43-1.385.557-1.255.625-2.347-.11-1.834-1.234.163-.36.449-.656.634-.66.185-.003.634-.238.998-.523.363-.285.853-.52 1.088-.523.235-.003.731-.245 1.103-.537.37-.292 1.444-.769 2.385-1.06.94-.29 1.83-.676 1.978-.857.396-.487.339-5.149-.067-5.485-.346-.288-.236-1.5.159-1.744.376-.232.267-1.077-.187-1.454-.278-.231-.377-.62-.295-1.157.072-.472-.052-1.111-.298-1.534-.39-.672-.384-.836.091-2.233.282-.829.78-1.872 1.107-2.317.327-.446.715-1.08.861-1.409.552-1.242.953-1.267 8.635-.523 1.082.105 2.225.877 2.225 1.503 0 .282.382.737.87 1.04 1.376.85 2.367 3.48 2.502 6.638.091 2.14.04 2.55-.348 2.835-.25.183-.485.72-.523 1.196-.041.529-.283 1.006-.623 1.232-.305.202-.555.582-.555.843 0 .61-1.656 1.64-2.467 1.535-.342-.045-.828.125-1.08.377-.253.252-.628.459-.834.459-.206 0-1.16.417-2.12.926-1.783.946-3.198 1.175-3.765.609-.247-.247-.317-.243-.317.018 0 .185.185.522.412.749.24.24.336.591.23.841-.442 1.045-.432 1.654.033 1.994.422.309.437.443.13 1.183-.4.966-.41 3.256-.016 3.99.39.728.337 1.193-.284 2.513-.303.646-.48 1.29-.393 1.432.255.412-.42 1.62-.905 1.62-.243 0-.522-.08-.619-.176zM9.86 24.395c.049-.329-.016-.35-.314-.102-.207.171-.376.5-.376.729 0 .323.071.346.315.103a1.53 1.53 0 0 0 .375-.73zm-3.336-3.319c0-.123-.179-.155-.397-.071-.218.083-.397.332-.397.553 0 .326.074.34.397.071.218-.18.397-.43.397-.553zm6.88-2.048c0-.373-.299-.544-.688-.395-.552.212-.449.615.158.615.291 0 .53-.099.53-.22zm.06-1.735c2.562-1.161 3.394-1.484 3.821-1.484.73 0 3.25-2.688 3.256-3.474.003-.382.197-.853.43-1.047.384-.318.366-.399-.184-.844-.513-.416-.56-.573-.292-1 .415-.665.4-1.3-.04-1.817-.196-.23-.511-.99-.7-1.688-.285-1.057-.512-1.358-1.346-1.783-.673-.343-1.27-.459-1.81-.35-.525.105-1.03.016-1.44-.252-.346-.227-.868-.351-1.159-.275-.29.076-.987.011-1.547-.143-1.329-.367-1.669-.051-1.184 1.1.432 1.026.589 4.629.232 5.308-.255.484.112 2.716.603 3.674.156.303.116.522-.12.662-.48.284-.782 3.326-.371 3.736.387.388.217.417 1.85-.323zm-2.839-5.718c.09-.145.038-.264-.117-.264-.154 0-.28.119-.28.264 0 .146.053.265.117.265s.19-.12.28-.265zm12.436-.22c0-.479-.518-.391-.621.104-.057.276.042.397.265.323.195-.065.356-.257.356-.427zM9.699 8.385c0-.137-.119-.25-.264-.25-.146 0-.265.186-.265.413 0 .227.119.34.265.25.145-.09.264-.276.264-.413zm13.18-.163c-.121-1.03-.744-1.12-.744-.108 0 .564.127.815.414.815.294 0 .39-.206.33-.707zm-12.172.158c-.052-.156-.208-.284-.346-.284-.139 0-.294.128-.347.284-.052.157.104.285.347.285.242 0 .398-.128.346-.285zm.05-2.742c0-.21-.119-.455-.264-.545-.146-.09-.265.082-.265.381 0 .3.12.545.265.545.145 0 .264-.172.264-.381zm-1.322-.56c0-.21-.12-.382-.265-.382-.146 0-.265.245-.265.545 0 .3.12.471.265.381.145-.09.265-.335.265-.545zm11.698-.166c-.404-.404-.702-.106-.478.478.133.345.247.38.483.144.235-.235.234-.383-.005-.622zM16.05 2.035c0-.137-.253-.25-.561-.25-.468 0-.507.067-.235.395.33.398.796.313.796-.145zm22.988 29.479c-.138-.166-.78-.381-1.427-.478-.646-.097-1.245-.29-1.33-.427-.085-.138-.426-.182-.757-.1-.863.217-3.094-1.15-3.64-2.229-.242-.476-.629-1.076-.86-1.332-1.248-1.378.514-1.634 2.794-.405.884.476 1.018.473 1.018-.019 0-.687.725-.433 1.691.59l.932.988 2.257-.027c2.81-.033 3.142-.253 2.902-1.922-.096-.67-.32-1.395-.499-1.613a3.417 3.417 0 0 1-.484-.848c-.087-.248-.611-.696-1.164-.995-1.224-.662-1.833-1.026-2.818-1.68-.524-.348-1-.452-1.56-.34-.47.094-.962.03-1.186-.156-.21-.175-.878-.383-1.483-.464-.93-.124-1.174-.291-1.562-1.068-.252-.507-.884-1.31-1.404-1.787-.52-.476-.865-.995-.767-1.153.098-.158.21-1.472.248-2.92.048-1.795.19-2.777.446-3.086.207-.248.662-1.107 1.011-1.907.856-1.958.963-2.075 2.077-2.282.531-.099 1.482-.4 2.112-.669 1.61-.687 2.842-.631 3.797.173.441.37 1.12.661 1.55.661.935 0 1.198.445 1.448 2.447.18 1.445.16 1.522-.387 1.522-.318 0-1.158-.25-1.868-.555-1.015-.437-1.326-.72-1.459-1.324-.189-.86-.975-1.193-2.23-.942-.68.136-1.042.39-2.623 1.833-.832.76-1.359 1.63-1.359 2.241 0 .34-.17.881-.378 1.203-.276.429-.32.891-.166 1.719.26 1.395.93 2.175 1.867 2.175.392 0 .916.225 1.166.501.25.276.966.579 1.592.673.707.106 1.37.417 1.75.82.336.359.815.652 1.063.652s.935.47 1.527 1.044c.591.574 1.44 1.232 1.885 1.462 1.003.52 2.094 2.207 2.562 3.966.506 1.9.447 2.756-.253 3.689-.339.45-.692 1.027-.786 1.282-.12.327-.459.463-1.15.463-.54 0-1.197.196-1.462.436-.56.507-2.268.629-2.633.188zm-3.795-2.723c-.096-.155-.3-.282-.456-.282-.175 0-.155.151.054.403.363.437.687.34.402-.121zm-1.995-1.076c0-.146-.126-.265-.28-.265-.154 0-.207.12-.117.265.09.145.216.264.28.264.065 0 .117-.119.117-.264zm9.525-4.763a.265.265 0 0 0-.265-.264.265.265 0 0 0-.264.264c0 .146.119.265.264.265.146 0 .265-.12.265-.265zm-6.636-3.725c.585-.487.603-.569.219-.953-.551-.551-1.153-.3-1.315.55-.21 1.094.12 1.215 1.096.403zm-3.105-1.094c-.19-.19-.313-.206-.313-.04 0 .353.313.666.49.49.075-.076-.005-.278-.177-.45zm.745-.87c-.181-.217-.434-.396-.561-.396-.128 0-.233.179-.233.397 0 .228.24.397.562.397.47 0 .507-.066.232-.397zm7.356-8.651c.457-.458.39-.951-.146-1.066-.779-.167-1.389.097-1.389.601 0 .408.24.576 1.072.752.08.017.288-.112.463-.287zM34.14 7.13c.072-.116.028-.376-.097-.578-.187-.303-.3-.307-.64-.024-.228.19-.35.45-.27.578.18.292.832.308 1.007.024zm4.952-.715c-.002-.146-.246-.303-.543-.35-.532-.083-.716.218-.354.58.257.257.902.092.897-.23zm67.726 23.217c-.303-.4-.788-1.006-1.079-1.346-.29-.34-.603-.936-.696-1.323a7.906 7.906 0 0 0-.526-1.416c-.426-.845-.542-3.772-.169-4.247.57-.726.595-1.989.052-2.68-.403-.512-.56-1.217-.663-2.998-.18-3.06-.18-2.95.036-4.246.28-1.68-.475-1.516-1.33.29-.367.777-.907 1.629-1.198 1.892-.349.316-.53.815-.53 1.464 0 .553-.173 1.13-.396 1.315-.225.187-.397.763-.397 1.332 0 .872-.145 1.11-1.11 1.82-1.36 1-2.17 1.041-2.76.142-.243-.372-.781-.851-1.196-1.066-.415-.214-.755-.539-.755-.72 0-.183-.359-.725-.797-1.205-.44-.48-.97-1.207-1.182-1.615-.21-.408-.715-1.025-1.12-1.371-.406-.346-.95-1.087-1.209-1.646-.26-.56-.71-1.08-1.003-1.156-.292-.076-.707-.48-.922-.895-.215-.416-.678-.828-1.029-.916-.35-.088-.701-.328-.78-.533-.2-.523-.954-.467-.954.07 0 .245.14.833.312 1.308.218.603.232 1.044.044 1.464-.175.392-.181 1.007-.017 1.775.174.818.154 1.495-.066 2.23-.278.929-.255 1.14.186 1.747.775 1.063.855 1.488.432 2.302-.35.675-.342.858.075 1.784.455 1.009.453 1.054-.117 2.044-.45.78-.526 1.16-.336 1.66.306.805.08 1.763-.417 1.763-.204 0-.5-.327-.657-.727-.157-.4-.502-1.218-.768-1.817-.315-.713-.436-1.445-.349-2.117.073-.565.023-1.509-.112-2.097-.142-.618-.149-1.333-.016-1.691.14-.379.11-1.148-.075-1.973-.168-.743-.288-1.947-.268-2.674.021-.728.066-2.942.101-4.92.046-2.582.166-3.72.427-4.035.394-.476 1.234-.586 1.476-.194.083.134.521.326.974.425.818.18 2.175 1.28 2.721 2.208.746 1.266 1.742 2.606 2.372 3.188.381.353.693.77.693.926 0 .157.486.756 1.08 1.333.594.576 1.241 1.359 1.438 1.74.458.884 2.389 2.636 2.907 2.636.417 0 .436-.06.528-1.69.036-.652.25-1.186.58-1.456.602-.491 1.669-2.275 1.669-2.79 0-.192.18-.499.4-.681.22-.183.617-.822.883-1.422.66-1.49 1.128-1.804 2.748-1.846l1.393-.037.059 1.984c.116 3.935.456 6.458.975 7.225.413.612.454.896.23 1.626-.155.505-.174 1.037-.044 1.242.125.197.229.68.231 1.074.002.393.133.998.29 1.344.232.507.174.871-.293 1.866-.544 1.157-.554 1.278-.155 1.887.235.358.427.837.427 1.064 0 .227.238 1.09.529 1.918.29.828.529 1.659.529 1.846 0 .587-.732.37-1.306-.388zm-.81-7.739c0-.146-.127-.265-.28-.265-.155 0-.207.12-.117.265.09.146.216.265.28.265.064 0 .116-.12.116-.265zm-6.218-6.35c.09-.146-.089-.265-.397-.265-.308 0-.487.12-.397.265.09.146.268.265.397.265.128 0 .307-.12.397-.265zM87.068 7.113c.078-.126-.094-.442-.381-.703-.505-.456-.523-.454-.523.053 0 .781.57 1.19.904.65zM49.99 28.683c-.28-.45-.1-1.401.525-2.786.304-.674.585-1.502.624-1.841.04-.339.422-1.172.852-1.852.43-.68 1.015-1.712 1.302-2.294.286-.582.837-1.636 1.224-2.342.446-.812.76-1.882.857-2.91.115-1.217.355-1.916.95-2.772.644-.924.81-1.46.867-2.778.038-.899.207-1.98.376-2.404.211-.533.221-.856.032-1.046-.531-.53-.265-1.546.717-2.736C60.066.802 60.68.229 61.403.048c.612-.154.883.012 2.034 1.243.73.781 1.559 1.663 1.841 1.96.282.295.513.855.513 1.243 0 .388.193 1.396.43 2.24.236.844.682 2.505.992 3.693.309 1.187.77 2.387 1.025 2.666.506.555.607 1.406.215 1.803-.137.138-.265.846-.284 1.574-.09 3.371.766 5.874 2.229 6.52 1.092.483 1.487 1.602.824 2.336-.456.503-.459.567-.042 1.028.492.543.33 1.36-.27 1.36-.21 0-.645-.282-.965-.629-.321-.346-.817-.674-1.103-.73-.286-.054-.692-.455-.903-.891l-.703-1.453c-.175-.364-.462-1.674-.638-2.91-.276-1.944-.54-3.226-.974-4.727-.071-.246-.293-.3-.696-.168-.326.106-.89.171-1.254.145-.364-.027-1.554-.092-2.646-.145-1.091-.052-2.271-.134-2.622-.18-.502-.067-.68.067-.834.632-.108.394-.436 1.053-.729 1.464-.293.412-.76 1.42-1.037 2.243-.278.821-.645 1.663-.817 1.87-.182.22-.245.715-.151 1.186.131.656.032.921-.528 1.408-.38.33-.69.86-.69 1.178 0 .636-1.09 1.863-1.879 2.113-.276.088-.502.257-.502.376 0 .358-1.044.514-1.249.186zm20.148-4.113c.199-.322-.554-.91-.896-.699-.469.29-.305.933.237.933.283 0 .58-.105.659-.234zM53.57 23.233c.066-.198-.033-.297-.231-.231a.828.828 0 0 0-.463.463c-.066.198.033.298.231.231a.828.828 0 0 0 .463-.463zm14.867-1.074a.265.265 0 0 0-.265-.265.265.265 0 0 0-.265.265.265.265 0 0 0 .53 0zm-3.854-8.725c.384-.146.679-.466.679-.738 0-.746-.979-3.343-1.3-3.45-.159-.053-.288-.667-.288-1.365 0-.772-.147-1.39-.376-1.58-.206-.171-.587-.902-.847-1.624-.52-1.444-.862-1.543-1.243-.361-.138.427-.384.944-.546 1.148-.162.204-.303.825-.312 1.38-.009.554-.201 1.22-.427 1.48-.226.26-.484 1.12-.573 1.912-.141 1.263-.08 1.544.494 2.298.382.5.959.904 1.383.968 1.406.213 2.684.187 3.356-.068zm53.736 15.1c-.088-.276-.449-.575-.802-.663-.354-.089-.924-.428-1.268-.754a39.349 39.349 0 0 0-1.465-1.297c-.639-.536-.84-.917-.84-1.6 0-.494-.143-1.041-.318-1.217-.25-.25-.216-.42.155-.78.453-.44.495-.433.881.134.223.327.527.595.676.595.148 0 1.001.462 1.895 1.027 1.891 1.194 4.006 1.745 5.855 1.525.72-.086 1.86-.154 2.536-.151 1.02.004 1.323-.116 1.786-.705.307-.39.558-.858.558-1.04 0-.418-1.248-1.275-2.116-1.452-.383-.078-.93-.55-1.301-1.124-.352-.545-.856-.99-1.12-.99-.263 0-.668-.29-.901-.646-.233-.355-.682-.682-.998-.727-.791-.113-.883-1.237-.194-2.367.298-.49.543-1.21.543-1.599.001-.746.603-1.54 1.167-1.54.184 0 .664-.37 1.066-.822.638-.715.84-.795 1.565-.618.459.112 1.488.214 2.289.226 1.624.026 2.95.687 4.089 2.041.854 1.015.555 1.717-.84 1.98-.756.141-1.206.053-1.968-.386-1.76-1.013-4.985-.598-4.985.642 0 .64 1.264 2.439 1.842 2.622.297.094.668.412.825.705.157.294.699.706 1.204.917.65.272 1.067.709 1.43 1.5.282.613.66 1.318.838 1.566.26.36.252.656-.036 1.455-.464 1.289-1.107 2.176-1.585 2.186-.206.005-.564.166-.793.359-.6.501-2.556 1.073-2.915.85-.167-.103-.48-.042-.694.136-.276.229-.963.271-2.348.146-1.255-.114-2.02-.08-2.128.096-.294.475-1.413.313-1.585-.23zm5.878-14.467c-.252-.252-.757.156-.57.46.112.18.26.176.45-.014.156-.156.21-.357.12-.446zm2.845-.11c.09-.146-.089-.265-.397-.265-.308 0-.487.119-.397.264.09.146.269.265.397.265s.307-.119.397-.265z"/>
</svg>
