<?xml version="1.0" encoding="utf-8"?>
<svg xmlns="http://www.w3.org/2000/svg" viewBox="0 0 139 123">
	<title>A diagram of the sacred place. It consists of two concentric circular shapes. The outer one has a small opening at the bottom and the inner one is similarly open at the top. In the middle of the whole structure is a small, complete circle with several lines.</title>
	<path d="M43.303 122.452c-9.317-2.975-17.97-8.217-24.744-15.335-4.738-4.767-9.745-9.489-12.118-15.972-6.665-12.52-7.967-27.439-4.785-41.17C2.9 42.388 6.194 35.413 10.48 29.095 16.766 18.46 26.12 9.346 37.285 3.96 42.955 2.086 48.675.716 54.68.558c8.88-1.275 17.889.01 26.743.189 8.116.369 16.237 1.984 24.33 2.572 5.34 2.354 10.543 4.75 14.939 8.775 5.992 5.207 9.958 12.254 13.76 19.09 6.168 18.028 4.847 38.288-2.925 55.608-3.733 7.752-7.3 15.966-14.051 21.67-5.088 5.026-11.056 9.035-17.948 11.132-5.255 1.926-15.582 4.265-16.264-3.917.61-6.78 10.21-4.939 14.306-9.112 5.973-4.43 12.61-8.425 16.395-15.094 6.693-9.218 10.423-20.436 10.336-31.855.22-10.703-1.165-22.181-8.346-30.636-4.718-5.223-10.447-9.998-17.04-12.583-10.184-4.232-21.62-3.939-32.472-3.475-10.245.793-21.17 1.338-29.887 7.43C25.438 25.881 18 36.941 13.923 48.367c-2.321 8.901-3.308 18.51-.084 27.328 2.02 9.334 8.313 17.08 14.955 23.633 6.688 5.972 15.488 9.237 21.858 15.537 4.09 4.976-2.973 8.869-7.35 7.586zm3.912-2.464c5.667-6.232-8.201-8.62-11.663-12.884-11.86-7.003-20.913-18.7-23.986-32.2-1.702-6.318-2.113-13.112-1.343-19.593 2.239-13.5 9.824-26.003 20.776-34.185 12.105-8.476 27.352-10.088 41.725-10.443 12.822-.025 27.185.503 37.215 9.59 5.444 3.348 9.55 8.515 12.305 14.24 1.907 5.985 4.525 11.972 4.418 18.367-.032 9.294.063 18.91-4.094 27.474-3.787 8.485-8.815 16.558-15.743 22.863-5.467 4.248-11.512 8.58-18.473 9.928-7.88 3.88 3.376 8.782 7.493 5.24 7.791-1.518 14.332-6.35 20.086-11.573 6.193-6.265 10.547-13.97 13.903-22.052 4.453-10.158 7.046-21.226 6.238-32.364-.217-6.92-1.758-13.863-4.076-20.361-5.062-8.18-10.059-16.985-18.59-22.057C105.32 4.703 95.312 4.917 86.1 3.393 74.672 2.38 63.095 1.94 51.657 2.881c-10.3 1.284-20.377 5.385-27.69 12.921-5.6 5.552-10.715 11.782-14.404 18.765-5.304 10.358-8 22.168-7.626 33.796 1.587 9.157 3.472 18.734 9.342 26.218 4.745 7.847 11.717 14.237 19.144 19.484 5.439 2.086 10.822 6.561 16.792 5.923zm16.604-17.736c-12.558-2.427-25.64-9.013-30.824-21.424-5.015-13.189-2.941-29.412 6.484-40.134 4.605-3.204 12.25-9.71 17.327-4.324 2.803 6.328-7.231 8.102-10.37 12.166-6.124 4.843-7.674 12.966-6.947 20.357-.375 9.599 7.212 17.218 15.202 21.276 8.26 3.21 18.01 4.666 26-.116 6.857-3.971 11.712-11.366 12.989-19.152 1.34-7.336-.338-15.548-6.364-20.412-7.422-2.541-6.391-14.133 2.328-12.84 7.556 1.118 10.88 8.846 13.401 15.143 1.985 11.874.75 24.831-6.093 35.053-4.545 6.485-10.55 13.004-18.836 14.078-4.607 1.204-9.598.69-14.297.329zm11.234-1.949c6.65-.361 12.115-4.355 16.486-9.07 10.49-10.599 12.407-27.492 7.776-41.22-2.275-4.77-7.502-12.543-13.503-8.685-5.23 4.8 7.207 7.742 8.025 13.127 3.578 7.683 2.753 17.07-.73 24.668C89.503 86.746 82.91 93.69 74.08 94.464c-11.23 2.15-23.392-2.421-30.939-10.857-4.312-4.89-6.184-11.353-5.611-17.805-.212-6.876 3.144-13.45 6.987-18.938 2.333-3.735 13.529-5.348 9.5-10.252-5.551-.495-10.924 3.772-14.484 7.921-9.184 10.109-8.964 25.806-3.396 37.624 4.904 9.69 15.505 14.67 25.582 17.096 4.352.686 8.944 1.805 13.333 1.05zm-11.7-20.549c-7.847-1.512-11.147-10.805-8.332-17.705 1.264-5.799 7.148-7.629 12.002-7.298 6.822-2.024 12.274 4.968 12.928 11.103 1.435 8.833-8.42 16.144-16.598 13.9zm4.394-1.542c5.783.396 13.328-10.262 8.82-12.537-2.604 2.698-10.225 1.198-3.35-.61 4.213.61 4.958-5.354 1.1-4.31-2.262 3.184-7.393 6.772-6.158-.057-.033-5.94 2.31-1.574 2.318 1.174 6.488-4.443-3.632-7.851-6.362-3.21 2.692 2.318 1.935 7.445-1.031 2.59-1.037-2.26 1.124-6.92-3.204-3.051-5.986 3.242 8.953 4.928 3.62 9.432-3.251 2.354-10.193-3.272-7.108 3.479 1.618 4.292 6.563 8.597 11.355 7.1zm-.281-1.5c-1.704-2.368-.52-8.67-4.974-4.524-3.34 2.993-7.075-.396-1.656-1.619 3.21-1.371 7.985-4.399 7.182 1.787-.207.743 1.264 5.323-.552 4.355zm4.211-2.57c-2.746-2.336-3.526-9.334.297-3.718 1.82 1.087 3.189 5.372-.297 3.718zM61.35 65.775c-1.744-4.669-7.554-4.027-4.384.314 1.45.096 2.998.221 4.384-.314z"/>
</svg>
