<?xml version="1.0" encoding="utf-8"?>
<svg xmlns="http://www.w3.org/2000/svg" viewBox="0 0 197 23">
	<title>A line of hieroglyphs, some of which are vaguely shaped like people, birds, and snakes.</title>
	<path d="M159.97 23.044c-.102-.103-.112-2.097-.02-4.432.158-4.097.142-4.287-.454-5.436-.981-1.89-1.954-2.238-6.446-2.303-4.608-.066-5.606-.349-6.359-1.799-.417-.804-.71-1.06-1.222-1.07-.959-.016-1.974-.762-2.185-1.605-.1-.397-.412-1.015-.694-1.374-.718-.913-.646-1.39.382-2.513 1.019-1.112 1.464-1.204 2.15-.445.402.444.688.505 1.718.368 1.186-.157 1.248-.132 1.566.637.225.541.273 1.355.15 2.508-.337 3.137.286 3.529 5.824 3.67 4.51.114 5.51.452 6.747 2.284.654.97.66 1.036.59 5.875-.04 2.692-.138 5.103-.217 5.358-.143.458-1.163.643-1.53.277zM146.575 5.777c0-1.062-.9-1.592-1.333-.785-.238.444-.205.656.162 1.062.68.752 1.17.636 1.17-.277zm-12.249 16.46c-.066-.4-.143-2.156-.17-3.902a109.554 109.554 0 0 0-.309-6.218c-.613-7.22-.612-6.948-.02-8.11.345-.674.889-1.237 1.455-1.506.832-.395 1.004-.395 2.15-.004 2.353.801 3.769 3.554 4.118 8.004.165 2.11.13 2.622-.207 3.006-.456.52-.802.571-1.383.204-.286-.18-.438-.935-.546-2.708-.122-2.025-.297-2.77-.994-4.237-.95-2-2.088-2.918-2.7-2.18-.335.404-.12 5.425.574 13.417.346 3.993.13 4.963-1.107 4.963-.603 0-.763-.136-.861-.728zm-13.522-.817c-.076-.123.17-1.469.547-2.991.665-2.686.673-2.812.26-4.234-.494-1.697-1.214-2.713-2.335-3.293-1.183-.611-1.64-.323-1.408.887.104.545.173 1.883.152 2.974-.028 1.51-.142 2.064-.476 2.315-.51.385-2.403.438-3.308.094-.344-.13-2.72-.307-5.28-.392l-4.655-.154-.313.757c-.63 1.52-1.537 2.058-4.06 2.408-1.282.178-2.403.25-2.491.162-.088-.088-.022-.465.148-.837.37-.812 1.758-1.442 3.176-1.442.982 0 1.823-.512 1.451-.883-.094-.095-1.165-.096-2.378-.003-2.356.181-2.566.064-1.733-.964.434-.537.807-.605 4.432-.807 2.177-.12 4.731-.343 5.677-.494.946-.15 2.05-.208 2.455-.127.806.162 4.282-.345 5.02-.732.529-.277.622-1.623.19-2.757-.263-.693-.32-.71-1.804-.555-.843.088-2.179.328-2.969.533-2.625.682-5.01.795-6.334.3-.653-.245-1.815-.529-2.582-.63-.767-.103-1.558-.359-1.758-.569-.2-.21-.566-1.093-.813-1.961-.446-1.568-.445-1.582.134-2.05.579-.47.575-.472-.616-.472-1.533 0-2.035-.2-2.035-.813 0-.58.751-1.04 1.702-1.04.812 0 .816-.026.18-1.071-.411-.677-.447-.955-.206-1.594.24-.638.444-.774 1.157-.774.808 0 .917.114 1.633 1.693.737 1.625 1.489 2.286 2.141 1.883.144-.089 3.41-.203 7.26-.253l6.997-.091-.153 2.36c-.172 2.659.071 3.114 1.673 3.13 2.1.022 4.195 2.876 4.182 5.698-.009 1.88-.778 6.147-1.2 6.655-.327.394-1.444.484-1.66.134zm-9.3-11.954c1.302-.288 2.754-.524 3.226-.524.471 0 .91-.089.973-.198.063-.11.2-1.02.305-2.023l.19-1.825-2.076.215c-1.141.119-3.742.2-5.78.179-2.037-.02-4.12.066-4.63.193-.848.21-.865.233-.198.257 1.122.042 1.786.883 1.786 2.261 0 .915.13 1.267.588 1.588.795.557 2.73.515 5.616-.123zm-8.189-1.075c0-.47-.164-.662-.625-.728-.967-.136-1.24.34-.575 1.005.698.698 1.2.582 1.2-.277zm60.458 11.897c0-.308.476-1.036 1.058-1.618.582-.582 1.058-1.104 1.058-1.16 0-.055-.238-.1-.529-.1-.884 0-.614-.866.662-2.118.655-.642 1.19-1.3 1.19-1.463 0-.162-.446-.406-.992-.54-.884-.22-.988-.333-.957-1.04.02-.436.123-1.062.23-1.391.164-.503.07-.642-.594-.873-1.465-.51-1.74-2-.76-4.106.776-1.666 1.83-2.547 2.92-2.44.674.067.916.308 1.54 1.535.927 1.824.815 2.668-.637 4.795-1.273 1.865-1.218 2.494.195 2.264 1.197-.194 1.428.306.753 1.63a245.61 245.61 0 0 0-.581 1.146c-.05.098.186.217.522.265.526.074.61.238.61 1.193 0 .904.168 1.281.912 2.05.502.52 1.127.944 1.39.944.597 0 .644.938.058 1.163-.23.088-.841.16-1.358.16-.74 0-1.134-.207-1.857-.974-.64-.678-1.019-.899-1.249-.727-.182.135-.842.633-1.468 1.106-1.333 1.008-2.116 1.119-2.116.3zm3.307-3.143c.09-.146.037-.265-.117-.265s-.28.119-.28.265c0 .145.053.264.117.264s.19-.119.28-.264zm.118-8.582c.427-.514.247-2.018-.28-2.348-.757-.474-1.293-.026-1.293 1.079 0 1.458.848 2.142 1.573 1.269zM25.754 18.99c.097-.484.719-1.346 1.573-2.183 1.275-1.246 2.346-3.102 1.791-3.102-.12 0-.655.182-1.188.405-1.67.698-1.918.063-.687-1.754.965-1.424.986-1.752.137-2.139-.779-.355-.873-1.235-.236-2.207.453-.691.387-.77-.822-.98-.437-.076-.52-.275-.47-1.14.083-1.495.832-3.757 1.502-4.536.534-.62.645-.645 1.67-.37.8.216 1.251.545 1.665 1.214.524.848.542 1.028.24 2.379-.18.804-.487 1.594-.681 1.755-.195.162-.354.44-.354.618s-.261.44-.58.583c-.346.154-.465.329-.295.433.156.097.584-.061.951-.35 1.598-1.257 2.058-.051.69 1.808-.935 1.273-.885 1.9.139 1.704.578-.11.682-.035.682.497 0 .346-.105.995-.233 1.442-.265.923.04 1.696.668 1.696.225 0 .725.219 1.112.486.386.268.91.562 1.165.654.605.218.585.59-.066 1.242-.714.714-1.792.666-2.967-.133-.536-.364-1.078-.661-1.206-.661-.128 0-.86.774-1.628 1.72-1.05 1.294-1.56 1.72-2.064 1.72-.602 0-.652-.08-.508-.8zm3.21-14.011c.387-.43.413-.598.14-.926-.59-.71-1.062-.477-1.062.524 0 1.052.238 1.156.921.402zm167.315 13.759c-.271-.777-.286-.783-1.063-.381-.433.224-1.047.37-1.365.325-.534-.076-.57-.2-.47-1.67.18-2.693.166-3.17-.1-3.307-.143-.073-.343.165-.445.53-1.005 3.566-1.335 4.048-2.687 3.917l-.844-.081-.05-2.868c-.039-2.144-.161-3.034-.485-3.528-.238-.364-.486-.609-.551-.544-.065.065-.232 1.407-.37 2.981-.238 2.713-.296 2.908-1.103 3.741-.67.69-1.067.88-1.853.88-1.248 0-1.422-.496-1.029-2.922.504-3.102.207-5.148-.875-6.047-.57-.472-.855.224-1.039 2.529-.205 2.577-1.003 4.374-2.193 4.942-1.23.586-2.375.554-3.013-.084-.793-.793-.894-1.669-.389-3.362.293-.98.47-2.514.488-4.223.023-2.292-.047-2.765-.477-3.241-1.62-1.79-3.23.718-2.138 3.33.435 1.042.332 1.799-.279 2.033-1.107.425-1.836-1.114-1.658-3.501.141-1.888.632-2.898 1.785-3.674 2.745-1.848 4.328-.66 4.664 3.503.126 1.557.058 2.548-.254 3.743-.616 2.35-.564 3.671.162 4.18.541.379.63.37 1.1-.1.516-.517.774-1.722 1.176-5.51.117-1.094.37-2.08.589-2.288 1.189-1.13 2.84-.37 3.835 1.766.726 1.56.78 2.342.346 4.976-.168 1.013-.225 1.92-.128 2.018.368.368.673-.379.832-2.038.436-4.564.494-4.816 1.23-5.364 1.596-1.19 3.125.312 3.337 3.275.143 1.996.43 2.355.707.88.264-1.408 1.025-2.595 1.85-2.886.625-.221.808-.168 1.235.36.276.34.501.953.501 1.362 0 .408.072.93.16 1.16.134.348.25.307.681-.242.286-.364.69-.661.898-.661.308 0 .378.636.378 3.44 0 2.931-.06 3.439-.41 3.439-.227 0-.535-.355-.686-.788zm-149.298.294c-.274-.443.32-1.338.978-1.472.323-.066 1.35-.194 2.28-.285 2.156-.21 3.56-.775 4.394-1.767.836-.994.83-1.623-.03-3.35-.629-1.262-.88-1.482-2.779-2.437-2.327-1.17-2.618-1.746-1.474-2.925.336-.348.87-1.059 1.185-1.58.506-.838.529-1.009.198-1.456-.32-.43-.457-.456-.918-.175-.934.57-2.606.413-3.332-.312-.569-.57-.609-.737-.352-1.474C47.503.73 48.636.227 49.134.908c.186.254.339.546.339.648 0 .39.85.483 2.157.235 1.826-.346 2.175-.052 2.007 1.694-.103 1.071.013 1.59.637 2.847.42.846.876 1.835 1.014 2.198s.75 1.021 1.361 1.464c2.748 1.99 3.604 3.976 1.714 3.976H57.5l.021 1.52c.017 1.164.142 1.622.533 1.947.501.417.499.434-.132.832-.455.286-1.695.453-4.216.568-1.964.09-4.241.235-5.059.323-.957.104-1.551.058-1.666-.128zm9.636-1.773c0-.082-.129-.39-.286-.683-.277-.518-.302-.52-.82-.051-.532.482-.532.483.088.657.85.239 1.018.251 1.018.077zM52.278 6.897c-.268-.269-.49.136-.27.493.167.27.23.27.319.001.061-.183.04-.406-.049-.494zM10.844 18.46c-2.94-.163-4.485-.458-7.604-1.45-.423-.135-.639-.067-.756.238-.193.502-.926.56-1.377.11-.516-.517-.349-1.613.372-2.432.655-.745.807-.781 5.878-1.384 7.195-.856 8.838-.83 11.886.186 1.347.448 2.448.954 2.448 1.124-.003.687-1.097 2.038-2.041 2.52-2.155 1.1-4.153 1.346-8.806 1.088zm7.342-1.987c.756-.24.222-.66-1.484-1.168-2.024-.603-3.654-.67-6.47-.27-4.27.61-4.282.617-2.014 1.072 2.682.539 8.725.76 9.968.366zm45.313 1.363c-.732-.731.336-1.484 2.106-1.484.699 0 1.268-.204 1.788-.642.752-.633.763-.683.815-3.696l.054-3.055-.813-.42-.812-.42.183-2.101c.221-2.534-.06-2.7-1.2-.713-1.141 1.99-1.302 3.072-.546 3.685.329.265.934.483 1.346.483.412 0 .833.137.937.304.57.921-2.75 1.412-4.003.591-.804-.527-.867-1.843-.161-3.409l.476-1.058-.748-.702c-.412-.386-.748-.955-.748-1.266 0-.31-.187-.85-.416-1.199-.323-.492-.35-.757-.123-1.181.161-.3.378-.566.482-.588.465-.102 1.622-.259 2.908-.394 1.311-.137 1.468-.088 2.57.815 1.413 1.158 1.708 2.207 1.112 3.956-.452 1.327-.32 1.691.38 1.056.269-.242.668-.355.916-.26.356.136.408.386.272 1.289-.373 2.471-.505 5.75-.231 5.75.354 0 .596-.64.596-1.578 0-.541.158-.783.582-.894.32-.083.725-.033.9.113.176.146.61.192.965.103.466-.117.869.027 1.452.518.445.374.88.68.968.68.088 0 .16-.475.16-1.054 0-.908.093-1.076.674-1.222.37-.093.75-.093.844 0 .333.333.393 3.353.09 4.555-.17.674-.24 1.293-.156 1.377.084.084.982.172 1.996.197 1.843.044 1.844.044 1.844-.679 0-.55-.253-.89-1.058-1.423-.747-.495-1.058-.888-1.058-1.337 0-.54.19-.682 1.256-.94 2.198-.531 2.305-.508 2.403.524.048.51.212 1.075.363 1.257.192.231.178.567-.047 1.11-.254.613-.253.988.003 1.764.288.874.27 1.026-.157 1.338-.563.412-1.286.438-3.292.119-.8-.127-2.092-.146-2.87-.043-1.574.21-1.94-.086-1.4-1.13.697-1.345.52-1.805-1.154-2.988-.873-.617-1.663-1.13-1.754-1.141-.092-.011-.313.334-.492.767-.18.433-.858 1.277-1.508 1.876-.65.6-1.122 1.148-1.05 1.22.071.071.646.187 1.276.257 1.894.209 2.337.35 2.337.744 0 .207-.149.47-.33.586-.497.314-8.611.3-8.927-.017zm22.035-.34c-.096-.25.08-.876.405-1.44.805-1.4.728-1.791-.62-3.13-1.25-1.241-1.384-1.562-.868-2.078.47-.47 1.125-.386 1.667.212.603.667.915.678.745.027-.185-.708.367-1.614.984-1.614.47 0 .52.188.52 1.95 0 1.074-.18 2.458-.397 3.077-.623 1.764-.596 1.8 1.46 2.003 1.991.196 2.485.509 1.705 1.08-.327.239-1.304.356-2.96.356-2.065 0-2.499-.072-2.64-.442zm7.08-1.078c.114-2.593.09-2.664-1.015-2.961-1.349-.363-1.977-.855-1.773-1.388.218-.567 1.324-.831 1.99-.475.567.304.591.273.903-1.146.128-.581.293-.727.75-.662.495.07.616.31.78 1.539.107.8.184 1.634.17 1.852a176.03 176.03 0 0 0-.09 2.28c-.078 2.197-.205 2.482-1.11 2.482-.65 0-.67-.05-.605-1.521zM44.11 13.374c-.094-.244-1.081-.325-3.763-.308l-3.636.022.18-2.059c.204-2.347.068-2.736-1.473-4.202-1.163-1.106-1.327-2.029-.496-2.782.469-.424.612-.438 1.208-.12.567.304.712.305.897.006.379-.613 1.026-.091 1.358 1.095.175.626.33 2.189.345 3.472.03 2.732 0 2.7 2.736 2.97 2.28.224 2.33.165 1.94-2.286-.2-1.25-.429-1.815-.873-2.155-1.928-1.474-2.284-2.513-1.121-3.274.64-.42.7-.413 1.3.15.45.424.796.539 1.214.406.66-.21 1.037.194 1.044 1.119.002.322.242.713.533.869.639.342.68.868.105 1.345-.36.299-.396.727-.24 2.82.135 1.787.097 2.573-.137 2.855-.394.475-.95.504-1.121.057zm-33.135-1.278c-.437-.1-1.411-.195-2.166-.212-1.513-.034-2.729-.399-2.729-.818 0-.15.25-.52.554-.825.437-.437.746-.518 1.463-.384.853.16.934.112 1.307-.78.45-1.079.33-1.457-.467-1.457-.926 0-4.007-1.03-4.709-1.574-.469-.364-.661-.768-.661-1.388 0-.794-.08-.883-.86-.958-.723-.07-.903.029-1.125.614-.376.988-1.42.83-1.542-.232C-.197 2 .556 1.439 3.511 1.495c2.61.05 4.262.585 8.623 2.791 3.001 1.518 3.538 1.706 4.59 1.608 1.747-.164 2.363-.471 3.65-1.822.637-.668 1.31-1.215 1.496-1.215.185 0 .549.387.807.86.609 1.114.625 5.316.023 5.918-.605.604-1.354.176-1.184-.677.195-.972-.148-1.466-.783-1.132-.869.458-3.66.64-5.258.345-1.776-.328-2.34-.078-2.09.923.203.807-.617 2.946-1.18 3.079-.24.057-.793.022-1.23-.077zm.397-2.228c0-.218-.116-.396-.257-.396-.14 0-.187.178-.103.396.083.219.199.397.256.397.057 0 .104-.178.104-.397zM8.463 5.27c0-.128-.239-.296-.53-.372-.573-.15-.74.212-.198.43.521.211.727.194.727-.058zM79.105 8.3c0-.355.122-.966.271-1.359.407-1.07.15-1.493-1.73-2.845-1.756-1.264-1.963-1.616-1.385-2.351.56-.713 1.378-.796 2.117-.215.87.686.888.682 1.217-.26.21-.602.44-.793.952-.793.77 0 .74-.137.78 3.537l.027 2.611 1.72.47a84.33 84.33 0 0 1 2.345.668c.618.197.624.183.448-1.228-.156-1.264-.318-1.556-1.406-2.547-1.124-1.025-1.206-1.182-.97-1.852.213-.6.422-.736 1.153-.748.66-.01.947-.16 1.1-.572C85.97.205 86.863-.196 87.34.1c.204.126.253.772.152 1.977-.13 1.548-.08 1.851.362 2.252.656.594.65 1.232-.018 1.836-.29.264-.53.729-.532 1.034-.007 1.052-.322 1.744-.793 1.744-.259 0-.537-.174-.62-.388-.128-.335-.267-.338-1.02-.024-.679.283-1.18.302-2.272.086-1.017-.201-1.581-.195-2.062.025-1.03.469-1.432.373-1.432-.343z"/>
</svg>
